<svg xmlns="http://www.w3.org/2000/svg" fill="none" viewBox="0 0 170 60" height="60" width="170">
<path fill="white" d="M25.9131 6.85364H30.4807V7.71391H29.6204C29.4699 7.71391 29.2076 7.88751 28.8296 8.23085C28.4515 8.57418 28.2625 8.84422 28.2625 9.02168V22.138C28.2625 22.3193 28.4515 22.5816 28.8296 22.9288C29.2076 23.276 29.4699 23.4496 29.6204 23.4496H30.4807V24.306H23.7412V23.4419H24.6015C24.7519 23.4419 25.0104 23.2683 25.373 22.9211C25.7357 22.5739 25.917 22.3115 25.917 22.1302V9.4306L19.5826 24.6185L13.2559 9.16827V22.1341C13.2559 22.3154 13.4372 22.5777 13.796 22.9249C14.1548 23.2721 14.4171 23.4457 14.5675 23.4457H15.424V24.3021H10V23.4419H10.8603C11.0416 23.4419 11.3116 23.2683 11.6743 22.9211C12.0369 22.5739 12.2143 22.3115 12.2143 22.1302V9.02168C12.2143 8.84422 12.033 8.57804 11.6743 8.23085C11.3155 7.88365 11.0416 7.71391 10.8603 7.71391H10V6.85364H15.0613L20.3078 19.9198H20.4429L25.9131 6.85364ZM36.7649 22.5392C37.5347 22.585 38.3019 22.4139 38.9792 22.0454C39.5412 21.6605 40.005 21.1492 40.3333 20.5524H41.0586C40.7363 21.673 40.1195 22.6868 39.2724 23.4882C38.3432 24.2588 37.156 24.6477 35.9509 24.576C35.2344 24.602 34.5218 24.4599 33.87 24.1612C33.2182 23.8624 32.6454 23.4153 32.1974 22.8555C31.2575 21.6943 30.7611 20.2367 30.797 18.7432C30.7551 17.9439 30.8731 17.1442 31.144 16.3911C31.4149 15.6379 31.8334 14.9464 32.3748 14.3569C32.8592 13.836 33.4471 13.4221 34.1008 13.1418C34.7545 12.8614 35.4596 12.7208 36.1708 12.729C36.9442 12.7112 37.7132 12.8503 38.4314 13.1379C39.0833 13.4156 39.6803 13.8076 40.1944 14.2952L38.5472 16.8837L37.8682 16.9262C38.0223 16.1558 37.9759 15.3587 37.7332 14.6115C37.5891 14.2638 37.3325 13.9745 37.0045 13.7898C36.6764 13.6052 36.296 13.5359 35.9239 13.5931C35.439 13.5623 34.9544 13.6585 34.518 13.8723C34.0816 14.0861 33.7086 14.41 33.4357 14.8121C32.8534 15.7796 32.5702 16.8976 32.6217 18.0256C32.5891 19.1944 32.9826 20.3351 33.7289 21.2352C34.1039 21.6673 34.5718 22.0091 35.0976 22.2349C35.6233 22.4607 36.1933 22.5647 36.7649 22.5392ZM47.9755 24.3021H41.1473V23.4419H42.0191C42.2004 23.4419 42.4705 23.2683 42.8331 22.9211C43.1957 22.5739 43.3732 22.3115 43.3732 22.1302V9.02168C43.3732 8.84422 43.1957 8.57804 42.8331 8.23085C42.4705 7.88365 42.1889 7.71391 42.0191 7.71391H41.1473V6.85364H47.9755V7.71391H47.1152C46.9339 7.71391 46.6638 7.88751 46.3012 8.23085C45.9386 8.57418 45.7611 8.84422 45.7611 9.02168V16.1662L51.9991 9.20299C52.1187 9.05254 51.9991 8.76707 51.6827 8.34658C51.3664 7.92609 51.1079 7.71391 50.9575 7.71391H50.1204V6.85364H56.447V7.71391H55.5868C55.1618 7.86001 54.7717 8.0925 54.441 8.39673C53.8354 8.86351 53.4766 9.16827 53.3531 9.28015L49.1096 13.8438L55.2126 21.9451C55.5087 22.2902 55.8499 22.5938 56.2271 22.8478C56.5301 23.1264 56.8951 23.3287 57.2919 23.438H58.5572C58.8568 23.3759 59.1278 23.2173 59.3288 22.9867C59.6605 22.6819 59.8264 22.4273 59.8264 22.2151V15.0822C59.8264 14.9009 59.6605 14.6578 59.3288 14.3569C59.1278 14.1262 58.8568 13.9677 58.5572 13.9056H57.8744V13.0453H61.898V22.2228C61.898 22.435 62.0716 22.6896 62.4188 22.9944C62.6185 23.2132 62.877 23.3699 63.1633 23.4457H64.5676C64.718 23.4457 64.9533 23.2953 65.2889 22.9944C65.6246 22.6935 65.7866 22.435 65.7866 22.2228V15.0822C65.7866 14.9009 65.6207 14.6578 65.2889 14.3569C64.9572 14.056 64.718 13.9056 64.5676 13.9056H63.8423V13.0453H67.4146L67.8659 15.3406C68.4792 14.6929 69.1366 14.0884 69.8333 13.5314C70.5409 12.9994 71.4099 12.727 72.2946 12.7598C72.71 12.7523 73.1226 12.8287 73.5077 12.9845C73.8929 13.1403 74.2426 13.3722 74.5359 13.6664C74.8446 13.9724 75.0864 14.3393 75.2457 14.7438C75.4051 15.1482 75.4787 15.5814 75.4618 16.0157V22.2228C75.4618 22.435 75.6277 22.6896 75.9594 22.9944C76.2912 23.2991 76.5304 23.4457 76.6808 23.4457H77.4061V24.3021H71.4845V23.4419H72.1094C72.4087 23.3789 72.6794 23.2205 72.8809 22.9905C73.2127 22.6857 73.3786 22.4311 73.3786 22.219V16.1662C73.4006 15.6598 73.239 15.1625 72.9234 14.7658C72.7541 14.5779 72.5441 14.4313 72.3094 14.337C72.0747 14.2427 71.8216 14.2033 71.5693 14.2219C70.675 14.2491 69.8123 14.5583 69.1042 15.1053C68.2787 15.6917 67.8659 16.1816 67.8659 16.5751V22.2228C67.8659 22.435 68.0318 22.6896 68.3636 22.9944C68.5645 23.2251 68.8355 23.3836 69.1351 23.4457H69.7678V24.3021H53.5923L47.5241 15.5798L45.7611 17.4778V22.1341C45.7611 22.3154 45.9386 22.5777 46.3012 22.9249C46.6638 23.2721 46.9339 23.4457 47.1152 23.4457H47.9755V24.3021ZM54.0321 43.9765L53.9781 43.9225C54.5529 44.4048 55.1354 44.887 55.7218 45.3692C56.3082 45.8514 56.9331 46.3182 57.5966 46.7734H58.6344V47.6761H56.7364C55.9637 47.6892 55.1958 47.5516 54.4757 47.271C53.7066 46.9268 53.0031 46.4517 52.3964 45.8668C51.7122 46.5559 50.8871 47.0889 49.9776 47.4292C48.9254 47.7952 47.8162 47.9702 46.7024 47.9461C45.2867 47.9536 43.9163 47.4479 42.8447 46.5226C42.2901 46.0752 41.8464 45.5058 41.548 44.8587C41.2495 44.2117 41.1045 43.5045 41.1241 42.7922C41.1127 41.7328 41.3787 40.6887 41.8957 39.7639C42.3972 38.8755 43.1002 38.117 43.948 37.5496C43.5423 37.0345 43.2004 36.4724 42.9296 35.8753C42.6624 35.2476 42.531 34.5706 42.5438 33.8886C42.5115 33.357 42.5956 32.8249 42.7901 32.3291C42.9847 31.8334 43.285 31.3861 43.6702 31.0184C44.5317 30.3011 45.6333 29.9371 46.7526 30C47.3974 29.9783 48.0411 30.0697 48.6544 30.27C49.0567 30.4355 49.4851 30.5282 49.9198 30.5439C50.0869 30.5481 50.2539 30.5325 50.4174 30.4976C50.5543 30.4527 50.6679 30.3557 50.7337 30.2276H51.5053V34.3399H50.7337C50.614 33.4907 50.2053 32.7087 49.5764 32.1256C49.2259 31.707 48.7863 31.372 48.2898 31.1451C47.7932 30.9181 47.2522 30.805 46.7063 30.814C45.9134 30.7704 45.1298 31.0021 44.4881 31.4698C44.2188 31.6897 44.0049 31.9697 43.8635 32.2872C43.7222 32.6048 43.6573 32.9511 43.6741 33.2984C43.6696 33.9785 43.9107 34.6373 44.3531 35.1539C44.8399 35.7214 45.4622 36.1567 46.1623 36.4193C47.2759 37.628 48.4808 38.8406 49.777 40.0571C51.0732 41.2736 52.309 42.4116 53.4843 43.4712C53.806 42.9554 54.043 42.3915 54.1864 41.8008C54.3277 41.1677 54.3963 40.5206 54.3909 39.8719C54.4065 39.5236 54.3479 39.1759 54.2189 38.852C54.0898 38.5281 53.8934 38.2353 53.6425 37.9932C53.09 37.5059 52.3682 37.2551 51.6326 37.295V36.4193H57.8358V37.2332H57.1607C57.0103 37.2332 56.7132 37.4878 56.2773 38.0048C55.9524 38.3089 55.7243 38.7021 55.6215 39.1351V39.1814C55.5916 40.0496 55.4396 40.9093 55.1701 41.7352C54.9109 42.5351 54.5268 43.2889 54.0321 43.9688V43.9765ZM48.1105 46.5998C48.8238 46.6094 49.534 46.5026 50.2129 46.2835C50.8152 46.0814 51.3855 45.7943 51.9065 45.4309L51.7715 45.3422C50.4856 44.1951 49.2202 43.0198 47.9755 41.8162C46.7307 40.6126 45.5245 39.346 44.3569 38.0164C43.9258 38.468 43.5749 38.9898 43.3192 39.5594C43.0501 40.2494 42.9267 40.9875 42.9566 41.7275C42.974 42.3744 43.1305 43.0101 43.4154 43.5912C43.7003 44.1723 44.1069 44.6853 44.6077 45.0953C45.5399 46.0248 46.7944 46.5595 48.1105 46.5882V46.5998ZM60.6327 10.2909H60.5864C60.2074 10.2943 59.8425 10.1472 59.5718 9.88195C59.4327 9.75664 59.3222 9.60294 59.2477 9.43123C59.1731 9.25952 59.1363 9.07382 59.1397 8.88666V8.84422C59.1287 8.64587 59.1618 8.44753 59.2365 8.26345C59.3112 8.07937 59.4257 7.9141 59.5718 7.77949C59.8701 7.53233 60.2453 7.39707 60.6327 7.39707C61.02 7.39707 61.3953 7.53233 61.6935 7.77949C61.8397 7.9141 61.9542 8.07937 62.0289 8.26345C62.1036 8.44753 62.1366 8.64587 62.1256 8.84422H62.0793C62.1102 8.84422 62.1256 8.84422 62.1256 8.88666C62.129 9.07382 62.0922 9.25952 62.0177 9.43123C61.9431 9.60294 61.8326 9.75664 61.6935 9.88195C61.4363 10.1415 61.0868 10.2885 60.7214 10.2909H60.6327ZM72.1094 46.4995C73.3499 46.571 74.5819 46.2556 75.6354 45.5968C76.5475 44.9101 77.2763 44.0091 77.7571 42.9735H78.6675C78.1682 44.442 77.2379 45.7259 75.998 46.6577C74.7228 47.5705 73.1832 48.0395 71.6156 47.9924C70.4732 48.0334 69.3367 47.8112 68.2939 47.343C67.2511 46.8747 66.3298 46.173 65.6014 45.292C64.091 43.4901 63.2875 41.2003 63.3408 38.8496C63.2799 36.5623 64.0148 34.3248 65.4201 32.5191C66.1021 31.6602 66.9778 30.975 67.9756 30.5197C68.9733 30.0645 70.0647 29.852 71.1604 29.8997C71.9771 29.881 72.7903 30.0118 73.5599 30.2855C74.2073 30.5409 74.897 30.6718 75.5929 30.6712C75.8099 30.6819 76.0264 30.6422 76.2256 30.5555C76.3936 30.4693 76.5461 30.3559 76.677 30.2199H77.3096V36.373H76.5381C76.4076 35.1314 75.9214 33.9539 75.1377 32.982C74.7192 32.3372 74.1415 31.8113 73.4602 31.4552C72.779 31.099 72.0174 30.9247 71.2491 30.949C70.5939 30.9142 69.9386 31.0147 69.324 31.2444C68.7094 31.474 68.1487 31.8278 67.6769 32.2838C66.68 33.4837 66.1342 34.9943 66.1338 36.5543V36.4655C66.1029 36.7973 66.0798 37.1291 66.0643 37.4608C66.0643 37.7926 66.0412 38.1359 66.0412 38.4986C66.0412 38.9191 66.0412 39.3511 66.0875 39.7871C66.1338 40.223 66.1492 40.6242 66.1762 40.9868C66.2965 42.4535 66.9192 43.8338 67.9392 44.8947C68.4826 45.44 69.1349 45.8648 69.8534 46.1413C70.5719 46.4178 71.3406 46.5398 72.1094 46.4995ZM86.383 21.1388C86.4098 21.6096 86.3324 22.0804 86.1564 22.5179C85.9803 22.9553 85.71 23.3485 85.3646 23.6695C84.644 24.2901 83.7147 24.6141 82.7644 24.576C82.1439 24.5948 81.5267 24.479 80.9552 24.2366C80.5043 24.0169 80.01 23.9009 79.5085 23.8971C79.3362 23.8804 79.163 23.9196 79.0147 24.0089L78.6521 24.3021H78.1275V20.3248H78.8064C78.9324 21.1 79.3043 21.8141 79.8673 22.3617C80.225 22.7807 80.6737 23.1125 81.1791 23.3318C81.6845 23.5511 82.2334 23.6521 82.7837 23.627C83.3493 23.6565 83.9121 23.5311 84.4117 23.2644C84.6042 23.1418 84.7602 22.9697 84.8634 22.7661C84.9665 22.5624 85.0131 22.3348 84.9981 22.1071C85.0187 21.8356 84.9645 21.5637 84.8414 21.3209C84.7183 21.0781 84.531 20.8737 84.2998 20.7299C83.8427 20.4488 83.3671 20.1987 82.8763 19.9815C82.452 19.804 82.0701 19.6381 81.719 19.4877C81.3679 19.3372 80.9706 19.1714 80.5193 18.99C79.8805 18.6949 79.2992 18.2887 78.8026 17.7903C78.5709 17.5383 78.3916 17.2428 78.275 16.921C78.1584 16.5991 78.107 16.2573 78.1236 15.9154C78.0954 15.4867 78.162 15.057 78.3187 14.657C78.4754 14.2569 78.7183 13.8963 79.0302 13.6008C79.6102 13.1896 80.2832 12.9289 80.9888 12.842C81.6945 12.7552 82.4107 12.8449 83.0731 13.1032C83.4604 13.2958 83.8866 13.3974 84.3191 13.4002C84.4512 13.4045 84.5826 13.3808 84.7049 13.3308C84.8166 13.2811 84.906 13.1918 84.9556 13.08H85.542V16.552H84.8631C84.7533 15.8662 84.4292 15.2328 83.9372 14.7427C83.6351 14.3732 83.2514 14.0789 82.8163 13.8827C82.3812 13.6866 81.9066 13.5941 81.4297 13.6124C80.9067 13.5696 80.3856 13.7146 79.9599 14.0213C79.8073 14.147 79.6853 14.3057 79.6031 14.4855C79.5209 14.6653 79.4806 14.8614 79.4854 15.059C79.4714 15.2669 79.5096 15.4749 79.5965 15.6642C79.6835 15.8535 79.8163 16.0181 79.983 16.143C80.4105 16.44 80.8637 16.6982 81.3371 16.9146C81.7614 17.092 82.1588 17.2579 82.5368 17.4084L83.779 17.906C84.4274 18.1785 85.0238 18.5609 85.542 19.0363C85.828 19.302 86.053 19.6265 86.2015 19.9874C86.35 20.3484 86.4185 20.7372 86.4023 21.1272L86.383 21.1388ZM89.3419 37.6846C89.9169 38.2459 90.3657 38.9233 90.6584 39.6716C90.951 40.4199 91.0809 41.2221 91.0393 42.0245C91.0803 42.8304 90.9502 43.6358 90.6576 44.3878C90.3651 45.1398 89.9167 45.8213 89.3419 46.3876C88.3033 47.4192 86.8978 47.9964 85.434 47.9924C83.9541 48.0033 82.5304 47.4261 81.476 46.3876C80.9019 45.821 80.4542 45.1393 80.1623 44.3873C79.8704 43.6353 79.7409 42.8301 79.7824 42.0245C79.7391 41.2583 79.8535 40.4914 80.1187 39.7713C80.3838 39.0511 80.794 38.3931 81.3238 37.8379C81.8537 37.2828 82.4919 36.8423 83.1989 36.5439C83.9059 36.2455 84.6666 36.0954 85.434 36.1029C86.9003 36.0923 88.3115 36.6607 89.3612 37.6846H89.3419ZM88.7979 43.8878V43.9765C88.8288 43.6448 88.8481 43.313 88.8635 42.9812C88.8789 42.6495 88.8867 42.3177 88.8867 41.986C88.8867 41.6542 88.8867 41.334 88.8635 41.0177C88.8404 40.7013 88.8288 40.4043 88.7979 40.1342C88.7276 39.309 88.3857 38.5302 87.8258 37.9199C87.5067 37.6297 87.1317 37.4077 86.7237 37.2677C86.3157 37.1277 85.8833 37.0727 85.4533 37.1059C85.0323 37.0761 84.6097 37.133 84.2116 37.273C83.8135 37.413 83.4483 37.6332 83.1386 37.9199C82.5848 38.5159 82.2431 39.278 82.1665 40.088V40.0301C82.1065 40.3433 82.0691 40.6605 82.0546 40.9791C82.0546 41.3109 82.0315 41.6426 82.0315 41.9705C82.0315 42.2984 82.0315 42.6263 82.0546 42.9427C82.0681 43.2397 82.1055 43.5351 82.1665 43.8261C82.2559 44.6326 82.5959 45.3909 83.1386 45.9941C83.4415 46.2933 83.8045 46.5247 84.2035 46.673C84.6026 46.8213 85.0285 46.8831 85.4533 46.8544C85.8891 46.8927 86.3281 46.8378 86.7411 46.6935C87.1542 46.5491 87.5318 46.3187 87.8489 46.0173C88.3773 45.4223 88.7088 44.6785 88.7979 43.8878ZM92.5052 24.5992C91.7919 24.6127 91.085 24.463 90.4384 24.1615C89.7919 23.8599 89.2228 23.4145 88.7748 22.8593C87.7973 21.7045 87.2747 20.2327 87.305 18.72C87.2583 17.1692 87.7905 15.6565 88.7979 14.4765C89.2451 13.9307 89.8124 13.4955 90.4555 13.2051C91.0985 12.9147 91.8 12.7768 92.5052 12.8023C93.0525 12.7717 93.6 12.8593 94.1106 13.059C94.6211 13.2587 95.0827 13.5658 95.4641 13.9596C96.1722 14.7171 96.5832 15.7047 96.6214 16.741L96.6677 17.555L89.1606 18.1568C89.1758 19.2403 89.5564 20.287 90.2407 21.1272C90.5846 21.589 91.0359 21.9601 91.5555 22.2081C92.0752 22.4561 92.6474 22.5738 93.2227 22.5507C93.9997 22.5944 94.7738 22.4236 95.4602 22.0569C96.0193 21.6925 96.4782 21.1938 96.795 20.6064H97.474C97.1866 21.7212 96.5902 22.7322 95.7534 23.5229C94.8427 24.2719 93.6821 24.6482 92.5052 24.576V24.5992ZM92.4589 13.6587C91.9659 13.6175 91.4706 13.7063 91.0225 13.9161C90.5745 14.1259 90.1892 14.4495 89.9051 14.8546C89.3959 15.5966 89.1058 16.4668 89.068 17.3659L94.7195 16.8837C94.8162 16.1273 94.7303 15.3587 94.4688 14.6424C94.2219 13.9737 93.5519 13.6381 92.4589 13.6355V13.6587ZM106.111 46.8351C106.293 46.8351 106.54 46.677 106.856 46.3606C107.172 46.0443 107.33 45.7974 107.33 45.6161V39.4437C107.351 38.962 107.199 38.4889 106.902 38.1089C106.727 37.9234 106.512 37.7801 106.274 37.6898C106.035 37.5996 105.779 37.5648 105.525 37.5881C104.725 37.6147 103.954 37.9003 103.33 38.4021C102.592 38.9474 102.223 39.4 102.223 39.76V45.6354C102.223 45.8167 102.381 46.0636 102.697 46.3799C103.014 46.6962 103.249 46.8544 103.399 46.8544H104.078V47.7147H98.2918V46.8544H98.9245C99.1058 46.8544 99.3527 46.6962 99.669 46.3799C99.9853 46.0636 100.144 45.8167 100.144 45.6354V39.463C100.168 38.9628 100.008 38.471 99.6922 38.0819C99.5185 37.8999 99.3066 37.7588 99.0718 37.6687C98.837 37.5787 98.585 37.5419 98.3342 37.5611C97.5129 37.5881 96.7246 37.8912 96.0968 38.4214C95.3586 38.9924 94.9896 39.4746 94.9896 39.8681V45.6547C94.9896 45.836 95.1477 46.0829 95.4641 46.3992C95.7804 46.7155 96.0312 46.8737 96.2125 46.8737H96.8451V47.734H91.0586V46.8737H91.7375C91.888 46.8737 92.1233 46.7155 92.4358 46.3992C92.7482 46.0829 92.9103 45.836 92.9103 45.6547V38.4523C92.9103 38.2748 92.7521 38.0318 92.4358 37.7309C92.1194 37.43 91.888 37.2795 91.7375 37.2795H91.0586V36.4193H94.5305L94.9819 38.5912C95.6454 37.8968 96.2485 37.3155 96.7911 36.8475C97.4525 36.3418 98.2751 36.0936 99.1058 36.1492C99.8161 36.1349 100.512 36.3485 101.093 36.7587C101.381 36.9672 101.623 37.2339 101.802 37.5415C101.982 37.8491 102.095 38.1909 102.134 38.5449C102.825 37.8813 103.461 37.322 104.032 36.8706C104.686 36.3927 105.484 36.1531 106.293 36.1917C107.112 36.1715 107.906 36.4719 108.507 37.0288C108.818 37.3377 109.06 37.7095 109.217 38.1192C109.373 38.529 109.44 38.9674 109.414 39.4051V45.5775C109.414 45.7588 109.572 46.0057 109.888 46.322C110.204 46.6384 110.436 46.7965 110.586 46.7965H111.265V47.6568H105.479V46.7965L106.111 46.8351ZM98.5618 15.2018C98.3733 14.9066 98.1359 14.6457 97.8597 14.4302C97.474 14.0984 97.2194 13.9326 97.0882 13.9326H96.5905V13.0453H102.693V13.9056H101.972C101.822 13.9056 101.625 14.056 101.386 14.3569C101.183 14.5674 101.056 14.8385 101.023 15.1285L103.723 20.6874L106.212 15.1709C106.213 15.0193 106.184 14.8691 106.125 14.7292C106.067 14.5893 105.981 14.4626 105.872 14.3569C105.615 14.056 105.411 13.9056 105.259 13.9056H104.514V13.0453H109.082V13.9056H108.584C108.434 13.9056 108.198 14.0637 107.882 14.3801C107.634 14.6057 107.428 14.8734 107.273 15.1709L103.415 23.3531L100.097 29.73L99.1135 29.2285L102.547 23.0329L98.5618 15.2018ZM119.043 36.1338C119.673 36.1089 120.3 36.2403 120.867 36.5162C121.435 36.7922 121.925 37.2042 122.295 37.7155C123.121 38.9396 123.527 40.3991 123.452 41.8741C123.513 43.4267 123.051 44.9549 122.14 46.214C121.765 46.7511 121.264 47.1885 120.681 47.4883C120.098 47.7881 119.451 47.9413 118.796 47.9346C117.967 47.9765 117.143 47.7796 116.423 47.3675C115.786 46.9364 115.265 46.3547 114.907 45.6739V51.0979C114.907 51.3101 115.073 51.5647 115.405 51.8695C115.736 52.1742 115.979 52.3208 116.13 52.3208H116.859V53.1464H110.903V52.2861H111.628C111.92 52.2245 112.183 52.0653 112.373 51.8347C112.624 51.6483 112.794 51.3719 112.847 51.0632V38.4523C112.847 38.2748 112.689 38.0318 112.373 37.7309C112.183 37.5003 111.92 37.3411 111.628 37.2795H110.903V36.373H114.564L114.926 38.7262C115.338 37.9327 115.935 37.25 116.666 36.7356C117.379 36.2963 118.205 36.0762 119.043 36.1029V36.1338ZM121.303 43.7296V43.7721L121.392 42.8694C121.423 42.5695 121.438 42.2682 121.438 41.9667C121.439 41.7024 121.423 41.4383 121.392 41.1758C121.361 40.9174 121.33 40.6705 121.303 40.4274C121.229 39.6362 120.912 38.8871 120.397 38.2825C120.149 38.0232 119.849 37.82 119.516 37.6869C119.183 37.5538 118.826 37.4938 118.468 37.511C118.051 37.4934 117.634 37.5625 117.245 37.7139C116.856 37.8653 116.503 38.0957 116.207 38.3906C115.618 39.0105 115.184 39.7615 114.942 40.5817V43.5213C114.937 43.943 115.019 44.3611 115.182 44.7499C115.345 45.1387 115.587 45.49 115.891 45.782C116.191 46.0901 116.551 46.3333 116.95 46.4966C117.348 46.6598 117.775 46.7396 118.205 46.731H118.252C118.653 46.7616 119.055 46.7024 119.43 46.5576C119.805 46.4127 120.143 46.186 120.42 45.8938C120.925 45.266 121.233 44.5019 121.303 43.6988V43.7296ZM146.845 45.6276C146.845 45.809 147.011 46.0559 147.343 46.3722C147.675 46.6885 147.914 46.8467 148.064 46.8467H148.743V47.707H142.822V46.8467H143.477C143.632 46.8467 143.863 46.6885 144.203 46.3722C144.542 46.0559 144.7 45.809 144.7 45.6276V39.4939C144.716 38.9998 144.565 38.5147 144.272 38.1167C144.111 37.922 143.906 37.7689 143.674 37.6702C143.442 37.5715 143.189 37.5301 142.937 37.5496C142.04 37.5789 141.176 37.8953 140.472 38.4523C139.641 39.0592 139.227 39.5414 139.23 39.8989V45.5968C139.23 45.809 139.396 46.0636 139.728 46.3683C139.929 46.599 140.2 46.7576 140.499 46.8197H141.163V47.68H131.565L131.248 45.3306C130.773 45.9555 130.244 46.5377 129.667 47.0704C129.08 47.6223 128.3 47.9227 127.495 47.9076C127.115 47.9103 126.739 47.8354 126.389 47.6874C126.04 47.5395 125.724 47.3217 125.462 47.0473C125.175 46.7566 124.95 46.4101 124.802 46.0292C124.654 45.6484 124.586 45.2412 124.602 44.833C124.558 44.3535 124.652 43.8717 124.872 43.4435C125.092 43.0153 125.429 42.6584 125.844 42.4142C126.6 41.9767 127.414 41.6493 128.262 41.442L131.202 40.8518L131.248 39.4977C131.282 38.8152 131.056 38.1453 130.616 37.6229C130.322 37.3613 129.978 37.1638 129.604 37.0429C129.23 36.922 128.835 36.8804 128.444 36.9208C128.065 36.8752 127.68 36.9354 127.333 37.0947C126.986 37.254 126.689 37.5062 126.476 37.8235C126.307 38.1967 126.229 38.6048 126.25 39.0141C126.27 39.4233 126.387 39.8219 126.592 40.1767H125.778L124.235 37.9161C124.853 37.3083 125.589 36.834 126.398 36.5228C127.207 36.2115 128.072 36.0699 128.938 36.1068C130.045 36.0689 131.136 36.3778 132.058 36.9902C132.47 37.2726 132.802 37.6555 133.023 38.1025C133.245 38.5495 133.348 39.0458 133.324 39.544V45.6006C133.324 45.782 133.49 46.0211 133.821 46.322C134.153 46.6229 134.392 46.7773 134.543 46.7773H135.901C136.201 46.7149 136.472 46.5548 136.672 46.322C137.004 46.0211 137.17 45.782 137.17 45.6006V38.4523C137.17 38.2748 137.004 38.0318 136.672 37.7309C136.471 37.5002 136.2 37.3417 135.901 37.2795H135.222V36.373H138.794L139.245 38.7262C139.85 38.0832 140.494 37.4789 141.174 36.9169C141.887 36.3772 142.766 36.1042 143.659 36.1454C144.073 36.1378 144.485 36.2139 144.869 36.369C145.254 36.5241 145.603 36.755 145.896 37.0481C146.206 37.3541 146.449 37.7214 146.609 38.1266C146.769 38.5318 146.843 38.9659 146.826 39.4013L146.845 45.6276ZM131.248 41.6195L128.548 42.2984C127.968 42.3927 127.44 42.6876 127.055 43.1317C126.775 43.5369 126.632 44.0206 126.646 44.5128V44.5552C126.643 44.7855 126.685 45.0141 126.77 45.228C126.856 45.4419 126.983 45.6367 127.144 45.8012C127.3 45.9687 127.489 46.1013 127.7 46.1904C127.911 46.2795 128.138 46.323 128.367 46.3182H128.432C129.038 46.2938 129.615 46.0545 130.06 45.6431C130.519 45.2761 130.91 44.8323 131.218 44.3315L131.248 41.6195ZM160 36.4193V37.2795H159.456C159.336 37.2795 159.117 37.4377 158.8 37.754C158.561 37.9828 158.341 38.232 158.144 38.4986L154.348 46.7271L150.957 53.0576L150.008 52.56L153.399 46.3645L149.422 38.5449C149.232 38.2507 148.995 37.99 148.72 37.7733C148.334 37.4416 148.095 37.2757 147.975 37.2757H147.432V36.4193H153.534V37.2795H152.855C152.705 37.2795 152.501 37.43 152.246 37.7309C152.034 37.9372 151.898 38.2091 151.86 38.5024L154.561 44.0653L157.06 38.487C157.061 38.3418 157.031 38.1982 156.972 38.0653C156.914 37.9325 156.828 37.8133 156.721 37.7155C156.466 37.4145 156.262 37.2641 156.111 37.2641H155.39V36.4193H160Z"></path>
</svg>
