<svg xmlns="http://www.w3.org/2000/svg" fill="none" viewBox="0 0 184 24" height="24" width="184">
<path fill="#C74634" d="M79.2318 15.6016H91.3097L84.9299 5.21357L73.2007 23.9759H67.8672L82.1323 1.46593C82.4433 1.01669 82.8565 0.649168 83.3373 0.394159C83.8182 0.13915 84.3527 0.00397807 84.8959 8.65506e-05C85.4392 -0.00380496 85.9754 0.123584 86.4598 0.371726C86.9443 0.619752 87.3626 0.981207 87.6799 1.42587L101.985 23.9759H96.6511L94.1389 19.7808H81.9184L79.2555 15.6016M134.676 19.7808V0.227282H130.143V21.7066C130.141 22.0051 130.201 22.3006 130.316 22.5753C130.433 22.85 130.603 23.0982 130.817 23.3048C131.031 23.5261 131.287 23.7017 131.571 23.8211C131.854 23.9406 132.158 24.0014 132.465 24H153.07L155.757 19.8048H134.652M59.7281 16.2888C61.8404 16.2888 63.8663 15.4428 65.3599 13.9366C66.8537 12.4306 67.6928 10.3879 67.6928 8.25811C67.6928 6.12819 66.8537 4.08549 65.3599 2.57947C63.8663 1.07334 61.8404 0.227282 59.7281 0.227282H39.9152V23.9759H44.4405V4.43046H59.4506C60.4616 4.43046 61.4312 4.83541 62.1461 5.55626C62.861 6.27699 63.2626 7.25467 63.2626 8.27402C63.2626 9.29337 62.861 10.2711 62.1461 10.9919C61.4312 11.7126 60.4616 12.1176 59.4506 12.1176H46.6833L60.2035 23.9759H66.7734L57.6912 16.2888H59.7281ZM12.0822 23.9759H25.7689C28.8384 23.8957 31.7553 22.6098 33.8982 20.3924C36.0409 18.1751 37.2402 15.2016 37.2402 12.1057C37.2402 9.00974 36.0409 6.03617 33.8982 3.81881C31.7553 1.60144 28.8384 0.315642 25.7689 0.235294H12.0822C10.5105 0.194204 8.94645 0.470845 7.48256 1.04885C6.01855 1.62685 4.68411 2.49466 3.55803 3.601C2.43196 4.70733 1.53699 6.02976 0.925906 7.49045C0.314823 8.95114 0 10.5203 0 12.1057C0 13.6909 0.314823 15.2601 0.925906 16.7208C1.53699 18.1815 2.43196 19.5039 3.55803 20.6102C4.68411 21.7166 6.01855 22.5844 7.48256 23.1624C8.94645 23.7405 10.5105 24.017 12.0822 23.9759ZM25.4599 19.7968H12.3833C10.405 19.7325 8.52892 18.8948 7.15201 17.461C5.77498 16.0271 5.00516 14.1095 5.00516 12.1136C5.00516 10.1178 5.77498 8.2002 7.15201 6.76629C8.52892 5.33249 10.405 4.49479 12.3833 4.43046H25.4599C26.4812 4.39727 27.4987 4.57136 28.452 4.94254C29.4053 5.31372 30.2748 5.87433 31.0089 6.59105C31.7431 7.30778 32.3268 8.16597 32.7254 9.1147C33.1241 10.0634 33.3295 11.0832 33.3295 12.1136C33.3295 13.144 33.1241 14.1638 32.7254 15.1126C32.3268 16.0612 31.7431 16.9195 31.0089 17.6362C30.2748 18.3529 29.4053 18.9135 28.452 19.2847C27.4987 19.6558 26.4812 19.83 25.4599 19.7968ZM111.439 23.9759H125.411L128.058 19.7968H111.748C110.727 19.83 109.71 19.6558 108.756 19.2847C107.803 18.9135 106.934 18.3529 106.199 17.6362C105.465 16.9195 104.882 16.0612 104.483 15.1126C104.084 14.1638 103.879 13.144 103.879 12.1136C103.879 11.0832 104.084 10.0634 104.483 9.1147C104.882 8.16597 105.465 7.30778 106.199 6.59105C106.934 5.87433 107.803 5.31372 108.756 4.94254C109.71 4.57136 110.727 4.39727 111.748 4.43046H125.023L127.702 0.235294H111.439C109.868 0.194204 108.304 0.470845 106.84 1.04885C105.376 1.62685 104.041 2.49466 102.915 3.601C101.789 4.70733 100.894 6.02976 100.283 7.49045C99.6721 8.95114 99.3572 10.5203 99.3572 12.1057C99.3572 13.6909 99.6721 15.2601 100.283 16.7208C100.894 18.1815 101.789 19.5039 102.915 20.6102C104.041 21.7166 105.376 22.5844 106.84 23.1624C108.304 23.7405 109.868 24.017 111.439 23.9759ZM166.812 19.7968C165.151 19.7974 163.536 19.2514 162.212 18.2418C160.888 17.2322 159.926 15.8142 159.473 14.2032H178.827L181.49 10.016H159.473C159.925 8.40439 160.885 6.98559 162.211 5.97585C163.535 4.966 165.151 4.4205 166.812 4.42245H180.095L182.75 0.227282H166.503C163.433 0.30763 160.517 1.59343 158.374 3.81079C156.231 6.02816 155.032 9.00173 155.032 12.0977C155.032 15.1936 156.231 18.1671 158.374 20.3844C160.517 22.6018 163.433 23.8877 166.503 23.9679H180.475L183.13 19.7888H166.804"></path>
</svg>
