<svg width="33" height="22" viewBox="0 0 33 22" fill="none" xmlns="http://www.w3.org/2000/svg"><g clip-path="url(#a)" fill="#fff"><path d="M.92.334h7.999c.55 0 .863.627.533 1.067l-.8 1.066A1.33 1.33 0 0 1 7.586 3H.92a.667.667 0 0 1-.667-.666V1C.253.632.552.334.92.334M32.25 1v1.334a.667.667 0 0 1-.666.666H12.919a.667.667 0 0 1-.533-1.066l1-1.333a.67.67 0 0 1 .533-.267h17.665c.368 0 .666.298.666.667m-.667 8.665H.92a.667.667 0 0 0-.667.667v1.333c0 .368.299.666.667.666h30.663a.667.667 0 0 0 .667-.666v-1.333a.667.667 0 0 0-.667-.667M.92 18.998h18.665c.549 0 .862.627.533 1.067l-.8 1.066a1.33 1.33 0 0 1-1.067.533H.92a.667.667 0 0 1-.667-.666v-1.333c0-.368.299-.667.667-.667m31.33.669V21a.667.667 0 0 1-.666.666h-7.999a.667.667 0 0 1-.533-1.066l.8-1.067A1.33 1.33 0 0 1 24.918 19h6.666c.368 0 .667.299.667.667"/></g><defs><clipPath id="a"><path fill="#fff" d="M.253.334H32.25v21.331H.253z"/></clipPath></defs></svg>